<svg xmlns='http://www.w3.org/2000/svg' dispaly='none'>
    <symbol id="edit-icon" width="18" height="19" viewBox="0 0 18 19" fill="none"
        xmlns="http://www.w3.org/2000/svg">
        <path d="M16.1253 4.79486L5.72984 15.1904L2.51571 15.576L2.90141 12.3619L13.2969 1.96643C13.3061 1.96378 13.3158 1.9611 13.3258 1.95839C13.4626 1.92133 13.6605 1.88264 13.8925 1.87944C14.3367 1.87331 14.9278 1.99293 15.5133 2.57843C16.0988 3.16392 16.2184 3.75504 16.2123 4.19925C16.2091 4.43131 16.1704 4.6292 16.1334 4.766C16.1307 4.77601 16.128 4.78563 16.1253 4.79486Z" stroke-width="2" stroke-linecap="round"/>
        <path d="M10.7003 3.14871L14.7409 7.18932" stroke-width="2"/>
    </symbol>
    <symbol id="check-icon" width="24" height="24" viewBox="0 0 24 24" fill="none"
        xmlns="http://www.w3.org/2000/svg">
        <path d="M8.99989 16.17L5.52989 12.7C5.13989 12.31 4.50989 12.31 4.11989 12.7C3.72989 13.09 3.72989 13.72 4.11989 14.11L8.29989 18.29C8.68989 18.68 9.31989 18.68 9.70989 18.29L20.2899 7.71001C20.6799 7.32001 20.6799 6.69001 20.2899 6.30001C19.8999 5.91001 19.2699 5.91001 18.8799 6.30001L8.99989 16.17Z"/>
    </symbol>
    <symbol id="close-icon" width="24" height="24" viewBox="0 0 24 24" fill="none"
        xmlns="http://www.w3.org/2000/svg">
        <path d="M18.3 5.71C17.91 5.32 17.28 5.32 16.89 5.71L12 10.59L7.10997 5.7C6.71997 5.31 6.08997 5.31 5.69997 5.7C5.30997 6.09 5.30997 6.72 5.69997 7.11L10.59 12L5.69997 16.89C5.30997 17.28 5.30997 17.91 5.69997 18.3C6.08997 18.69 6.71997 18.69 7.10997 18.3L12 13.41L16.89 18.3C17.28 18.69 17.91 18.69 18.3 18.3C18.69 17.91 18.69 17.28 18.3 16.89L13.41 12L18.3 7.11C18.68 6.73 18.68 6.09 18.3 5.71Z"/>
    </symbol>
    <symbol id="dashboard-icon" width="24" height="24" viewBox="0 0 24 24" fill="none"
        xmlns="http://www.w3.org/2000/svg">
        <path d="M6.4 9.2H6.6C7.37 9.2 8 9.83 8 10.6V17.6C8 18.37 7.37 19 6.6 19H6.4C5.63 19 5 18.37 5 17.6V10.6C5 9.83 5.63 9.2 6.4 9.2ZM12 5C12.77 5 13.4 5.63 13.4 6.4V17.6C13.4 18.37 12.77 19 12 19C11.23 19 10.6 18.37 10.6 17.6V6.4C10.6 5.63 11.23 5 12 5ZM17.6 13C18.37 13 19 13.63 19 14.4V17.6C19 18.37 18.37 19 17.6 19C16.83 19 16.2 18.37 16.2 17.6V14.4C16.2 13.63 16.83 13 17.6 13Z"/>
    </symbol>
    <symbol id="delete-icon" width="20" height="19" viewBox="0 0 20 19" fill="none"
        xmlns="http://www.w3.org/2000/svg">
        <path d="M4.05874 14.6498L3.55125 4.5H16.4488L15.9413 14.6498C15.8614 16.2464 14.5436 17.5 12.945 17.5H7.055C5.45637 17.5 4.13857 16.2464 4.05874 14.6498Z" stroke-width="2"/>
        <path d="M7.25 4H12.75V3.5C12.75 2.39543 11.8546 1.5 10.75 1.5H9.25C8.14543 1.5 7.25 2.39543 7.25 3.5V4Z" stroke-width="2"/>
        <path d="M1.75 4.25H18.25" stroke-width="2" stroke-linecap="round"/>
        <path d="M12.25 8.75V12.5" stroke-width="2" stroke-linecap="round"/>
        <path d="M7.75 8.75V12.5" stroke-width="2" stroke-linecap="round"/>
    </symbol>
    <symbol id="person-icon" width="24" height="24" viewBox="0 0 24 24" fill="none"
        xmlns="http://www.w3.org/2000/svg">
        <path d="M12 11C10.67 11 8 11.67 8 13V13.16C8.97 14.28 10.4 15 12 15C13.6 15 15.03 14.28 16 13.16V13C16 11.67 13.33 11 12 11ZM12 10C13.1 10 14 9.1 14 8C14 6.9 13.1 6 12 6C10.9 6 10 6.9 10 8C10 9.1 10.9 10 12 10ZM12 2C16.2 2 20 5.22 20 10.2C20 13.38 17.55 17.12 12.66 21.43C12.28 21.76 11.71 21.76 11.33 21.43C6.45 17.12 4 13.38 4 10.2C4 5.22 7.8 2 12 2Z" />
    </symbol>
    <symbol id="plus-icon" width="71" height="70" viewBox="0 0 71 70" fill="none"
        xmlns="http://www.w3.org/2000/svg">
        <path d="M35.5 19.25V50.75" stroke-width="2" stroke-linecap="round" stroke-linejoin="round"/>
        <path d="M19.75 35H51.25" stroke-width="2" stroke-linecap="round" stroke-linejoin="round"/>
        <circle cx="35.5" cy="35" r="34.5"/>
    </symbol>
    <symbol id="users-icon" width="24" height="24" viewBox="0 0 24 24" fill="none"
        xmlns="http://www.w3.org/2000/svg">
        <path d="M16.5 12C17.88 12 18.99 10.88 18.99 9.5C18.99 8.12 17.88 7 16.5 7C15.12 7 14 8.12 14 9.5C14 10.88 15.12 12 16.5 12ZM9 11C10.66 11 11.99 9.66 11.99 8C11.99 6.34 10.66 5 9 5C7.34 5 6 6.34 6 8C6 9.66 7.34 11 9 11ZM16.5 14C14.67 14 11 14.92 11 16.75V18C11 18.55 11.45 19 12 19H21C21.55 19 22 18.55 22 18V16.75C22 14.92 18.33 14 16.5 14ZM9 13C6.67 13 2 14.17 2 16.5V18C2 18.55 2.45 19 3 19H9V16.75C9 15.9 9.33 14.41 11.37 13.28C10.5 13.1 9.66 13 9 13Z" />
    </symbol>
</svg>
